<?xml version="1.0" encoding="UTF-8"?>
<svg width="147px" height="120px" viewBox="0 0 147 120" version="1.1" xmlns="http://www.w3.org/2000/svg" xmlns:xlink="http://www.w3.org/1999/xlink">
    <title>EE2F64A5-7A68-4563-ADB1-78809EA370A2</title>
    <g id="Page-1" stroke="none" stroke-width="1" fill="none" fill-rule="evenodd">
        <g id="homePage/OnePage1" transform="translate(-529.000000, -234.000000)" fill="#FCC400">
            <g id="promo" transform="translate(-92.000000, 0.000000)">
                <g id="promo-text" transform="translate(173.000000, 179.000000)">
                    <g id="Group" transform="translate(448.177534, 55.000000)">
                        <path d="M84.6845203,108.86089 L83.6730216,109.622654 L82.6672918,108.86089 C81.0327406,107.632425 79.2424262,106.280535 77.3944218,104.870789 C76.0925499,107.798277 73.9157122,110.172281 71.2504322,111.771021 C73.3234278,113.356261 75.3271953,114.872075 77.1521237,116.24325 L80.8962075,119.06467 C81.7154061,119.68758 82.6942138,120 83.6730216,120 C84.6518293,120 85.6306371,119.68758 86.4498357,119.06467 L90.1996885,116.237465 C109.987373,101.358961 146.822466,73.6731808 146.822466,40.4949859 C146.822466,13.9065312 128.144353,0 109.695077,0 C99.3377914,0 90.0266184,4.32180509 83.6730216,11.8295192 C77.3213478,4.32180509 68.0044057,0 57.6490429,0 C39.197844,0 20.5197309,13.9065312 20.5197309,40.4949859 C20.5197309,43.2624068 20.8601021,45.9758293 21.3408525,48.6622525 L21.6273797,48.6622525 L23.7061443,46.8918745 C25.5349187,45.3336333 27.6829113,44.2883775 29.95013,43.7271792 C29.8539799,42.6510671 29.7136008,41.578812 29.7136008,40.4949859 C29.7136008,19.9620725 43.7649724,9.21830805 57.6490429,9.21830805 C67.060212,9.21830805 75.2771972,14.0569555 79.6251035,22.1663667 C81.2288867,25.1536385 86.1171564,25.1536385 87.7209396,22.1663667 C92.0688459,14.0569555 100.283908,9.21830805 109.695077,9.21830805 C123.579148,9.21830805 137.630519,19.9620725 137.630519,40.4949859 C137.630519,69.0620982 103.189563,94.9485729 84.6845203,108.86089" id="Fill-28"></path>
                        <path d="M100.438236,66.4092029 C98.7886131,66.4092029 97.4468147,65.0650921 97.4468147,63.4082131 C97.4468147,61.7513342 98.7886131,60.4092029 100.438236,60.4092029 C102.087858,60.4092029 103.429657,61.7513342 103.429657,63.4082131 C103.429657,65.0650921 102.087858,66.4092029 100.438236,66.4092029 M100.126391,53.8241622 C96.7910262,53.8241622 93.9040974,55.6662307 92.3336081,58.3703797 C92.202734,58.3587822 92.0872568,58.293063 91.9525335,58.293063 L83.640103,58.293063 L79.5194932,48.2303045 C78.757344,46.3766384 76.8808402,45.2826082 74.9177286,45.377321 C72.9334461,45.5280884 71.2705751,46.9429827 70.7951942,48.8855628 L64.8731407,73.1281902 L59.1031323,31.729004 C58.7971178,29.5274131 56.9706541,27.8612399 54.7611913,27.7587954 C52.5959946,27.608028 50.5789936,29.1485617 50.0708942,31.3134272 L41.9278302,66.0421217 L38.1459534,55.8575894 C37.6205323,54.4426952 36.4465146,53.3776587 34.9953517,52.9988072 C33.548038,52.614157 31.9987195,52.9698135 30.8554957,53.9498017 L25.7668024,58.293063 L4.59983999,58.293063 C2.06126721,58.293063 0,60.3632156 0,62.9127313 C0,65.4641799 2.06126721,67.5323996 4.59983999,67.5323996 L27.4585427,67.5323996 C28.5517264,67.5323996 29.6064178,67.1419506 30.4397779,66.4325706 L31.8178053,65.2592908 L38.6155604,83.5640015 C39.3257449,85.4717892 41.2080226,86.7533123 43.2134758,86.5600207 C45.2362506,86.4343812 46.937614,84.9904933 47.4014473,83.0111877 L53.3985608,57.4387143 L59.0858107,98.2232334 C59.3899005,100.413227 61.2048165,102.0794 63.4065809,102.193442 C63.4835657,102.201174 63.5643997,102.201174 63.6433091,102.201174 C65.7488425,102.201174 67.6022508,100.757286 68.1084257,98.6813344 L76.3746653,64.8321165 C77.119493,66.4750948 78.7515701,67.5323996 80.5568629,67.5323996 L91.9525335,67.5323996 C92.0872568,67.5323996 92.202734,67.4666805 92.3336081,67.4570159 C93.9040974,70.1611648 96.7910262,72.0032334 100.126391,72.0032334 C105.115004,72.0032334 109.175951,67.9247815 109.175951,62.9127313 C109.175951,57.9026141 105.115004,53.8241622 100.126391,53.8241622" id="Fill-30"></path>
                    </g>
                </g>
            </g>
        </g>
    </g>
</svg>