<?xml version="1.0" encoding="UTF-8"?>
<svg width="211px" height="38px" viewBox="0 0 211 38" version="1.1" xmlns="http://www.w3.org/2000/svg" xmlns:xlink="http://www.w3.org/1999/xlink">
    <title>FDD98F57-1D36-40AA-AC8D-0D56A5012F2F</title>
    <defs>
        <polygon id="path-1" points="0 -2.32655586e-15 48.7197991 -2.32655586e-15 48.7197991 1.41215575 0 1.41215575"></polygon>
    </defs>
    <g id="Page-1" stroke="none" stroke-width="1" fill="none" fill-rule="evenodd">
        <g id="homePage/OnePage1" transform="translate(-81.000000, -21.000000)">
            <g id="Header" transform="translate(0.000000, 21.000000)">
                <g id="logo" transform="translate(81.000000, 0.000000)">
                    <path d="M58.4231965,14.8957088 L61.9892761,14.8957088 C62.2269929,14.8957088 62.3854708,15.0541867 62.3854708,15.2919035 L62.3854708,27.4429655 C62.3854708,27.6806823 62.2269929,27.8391602 61.9892761,27.8391602 L58.4231965,27.8391602 C58.1854796,27.8391602 58.0270018,27.6806823 58.0270018,27.4429655 L58.0270018,15.2919035 C58.0270018,15.0541867 58.1854796,14.8957088 58.4231965,14.8957088 M57.9212407,10.484523 C57.9212407,9.2167 58.9251522,8.18626637 60.2194973,8.18626637 C61.4873204,8.18626637 62.4912319,9.2167 62.4912319,10.484523 C62.4912319,11.752346 61.4873204,12.7824522 60.2194973,12.7824522 C58.9251522,12.7824522 57.9212407,11.752346 57.9212407,10.484523" id="Fill-1" fill="#164193"></path>
                    <path d="M80.7966053,24.8806009 C80.9288885,25.0656009 80.9816053,25.2240788 80.7966053,25.4356009 C79.1853044,27.1523354 76.834331,28.182769 74.2191186,28.182769 C68.9097823,28.182769 64.6040301,23.9824504 64.6040301,18.6731142 C64.6040301,13.3107336 68.9097823,9.1372646 74.2191186,9.1372646 C76.834331,9.1372646 79.1853044,10.1411761 80.7966053,11.8844327 C80.9816053,12.0694327 80.9288885,12.2541053 80.7966053,12.4391053 L78.4983487,14.9223619 C78.3663929,15.1070345 78.1286761,15.1070345 77.9436761,14.9485566 C76.9662867,14.1034504 75.7249858,13.5484504 74.1664018,13.5484504 C71.3927115,13.5484504 69.2529327,15.7412735 69.2529327,18.6731142 C69.2529327,21.5522381 71.3927115,23.7447336 74.1664018,23.7447336 C75.7249858,23.7447336 76.9662867,23.2165832 77.9436761,22.3449549 C78.1286761,22.1861496 78.3663929,22.2129991 78.4983487,22.3976717 L80.7966053,24.8806009 Z" id="Fill-3" fill="#164193"></path>
                    <path d="M91.0713416,21.3674673 C91.0713416,19.8088832 90.0674301,18.5941044 88.4826513,18.5941044 C87.0033062,18.5941044 85.9201558,19.7296442 85.9201558,21.3674673 C85.9201558,22.9787681 87.0033062,24.0353965 88.4826513,24.0353965 C90.0674301,24.0353965 91.0713416,22.9260513 91.0713416,21.3674673 M95.4563327,15.2919363 L95.4563327,27.4429982 C95.4563327,27.680715 95.2978549,27.8391929 95.0601381,27.8391929 L92.048731,27.8391929 C91.8110142,27.8391929 91.6790584,27.680715 91.6525363,27.4429982 L91.5202531,26.4390867 C90.7278637,27.389954 89.5919965,28.0241929 87.9806956,28.0241929 C84.3618991,28.0241929 81.7201646,25.1182195 81.7201646,21.3939894 C81.7201646,17.616715 84.3618991,14.6318301 87.9806956,14.6318301 C89.5392796,14.6318301 90.7013416,15.3449805 91.5202531,16.3750867 L91.6525363,15.2919363 C91.6790584,15.0542195 91.8110142,14.8957416 92.048731,14.8957416 L95.0601381,14.8957416 C95.2978549,14.8957416 95.4563327,15.0542195 95.4563327,15.2919363" id="Fill-5" fill="#164193"></path>
                    <path d="M107.527239,15.9259788 L106.54985,18.4616248 C106.444088,18.8051027 106.206372,18.8581469 105.889416,18.778908 C105.598982,18.6731469 105.255504,18.5673858 104.780071,18.5673858 C103.115726,18.5673858 102.217903,19.782492 102.217903,21.314554 L102.217903,27.4428018 C102.217903,27.6805186 102.059097,27.8393239 101.821381,27.8393239 L98.2553009,27.8393239 C98.0175841,27.8393239 97.8591062,27.6805186 97.8591062,27.4428018 L97.8591062,15.2920673 C97.8591062,15.0543504 98.0175841,14.8955451 98.2553009,14.8955451 L101.689097,14.8955451 C101.927142,14.8955451 102.059097,15.0543504 102.085619,15.2920673 L102.191053,16.876846 C102.851487,15.5563062 103.908442,14.6051115 105.545938,14.6051115 C106.338327,14.6051115 106.999088,14.9485894 107.368761,15.2920673 C107.606478,15.5297841 107.606478,15.7409788 107.527239,15.9259788" id="Fill-7" fill="#164193"></path>
                    <path d="M111.700381,20.1260354 L116.349611,20.1260354 C116.05885,18.8316903 115.134504,18.3035398 114.077876,18.3035398 C112.968531,18.3035398 111.990814,18.8316903 111.700381,20.1260354 M119.228735,22.8470088 L111.779619,22.8470088 C112.149619,24.0090708 113.206248,24.5899381 114.764504,24.5899381 C115.477982,24.5899381 116.164283,24.4579823 117.088956,23.9033097 C117.353195,23.7448319 117.512,23.771354 117.67015,23.9560265 L119.20254,25.4618938 C119.387212,25.6465664 119.36069,25.8318938 119.149496,26.0427611 C117.907867,27.2581947 116.217327,28.0240619 114.36831,28.0240619 C110.221363,28.0240619 107.420823,25.039177 107.420823,21.3146195 C107.420823,17.5900619 110.273752,14.6316991 114.024832,14.6316991 C117.802434,14.6316991 120.232319,17.5900619 120.232319,21.1296195 C120.232319,22.2658142 120.074168,22.8470088 119.228735,22.8470088" id="Fill-9" fill="#164193"></path>
                    <path d="M129.450427,15.7145549 L125.937391,21.1034575 L129.450427,21.1034575 L129.450427,15.7145549 Z M135.73748,21.4993248 L135.73748,24.1937761 C135.73748,24.4318204 135.579002,24.5899708 135.340958,24.5899708 L133.808896,24.5899708 L133.808896,27.4429 C133.808896,27.6806168 133.650418,27.8390947 133.412701,27.8390947 L129.846621,27.8390947 C129.608904,27.8390947 129.450427,27.6806168 129.450427,27.4429 L129.450427,24.5899708 L122.133595,24.5899708 C121.895878,24.5899708 121.737073,24.4318204 121.737073,24.1937761 L121.737073,21.367369 C121.737073,21.1826965 121.763922,21.0507407 121.869356,20.8657407 L129.292276,9.6128292 C129.371188,9.4278292 129.556188,9.34859027 129.76771,9.34859027 L133.412701,9.34859027 C133.650418,9.34859027 133.808896,9.50706814 133.808896,9.74478496 L133.808896,21.1034575 L135.340958,21.1034575 C135.579002,21.1034575 135.73748,21.261608 135.73748,21.4993248 L135.73748,21.4993248 Z" id="Fill-11" fill="#164193"></path>
                    <path d="M153.593385,9.7448177 L153.593385,27.4429327 C153.593385,27.6806496 153.435235,27.8391274 153.19719,27.8391274 L149.049916,27.8391274 C148.838721,27.8391274 148.680243,27.7602159 148.574482,27.5748885 L142.57819,16.7450212 L142.57819,27.4429327 C142.57819,27.6806496 142.42004,27.8391274 142.181996,27.8391274 L138.457438,27.8391274 C138.219721,27.8391274 138.061243,27.6806496 138.061243,27.4429327 L138.061243,9.7448177 C138.061243,9.50710088 138.219721,9.34862301 138.457438,9.34862301 L142.604712,9.34862301 C142.815907,9.34862301 142.974385,9.42786195 143.080146,9.61286195 L149.076438,20.4695788 L149.076438,9.7448177 C149.076438,9.50710088 149.234916,9.34862301 149.472633,9.34862301 L153.19719,9.34862301 C153.435235,9.34862301 153.593385,9.50710088 153.593385,9.7448177" id="Fill-13" fill="#164193"></path>
                    <path d="M159.060512,20.1260354 L163.709742,20.1260354 C163.418981,18.8316903 162.494635,18.3035398 161.438007,18.3035398 C160.328662,18.3035398 159.350945,18.8316903 159.060512,20.1260354 M166.588865,22.8470088 L159.13975,22.8470088 C159.50975,24.0090708 160.566379,24.5899381 162.124635,24.5899381 C162.838113,24.5899381 163.524414,24.4579823 164.449087,23.9033097 C164.713326,23.7448319 164.872131,23.771354 165.030281,23.9560265 L166.562671,25.4618938 C166.747343,25.6465664 166.720821,25.8318938 166.509627,26.0427611 C165.267998,27.2581947 163.577458,28.0240619 161.728441,28.0240619 C157.581494,28.0240619 154.780954,25.039177 154.780954,21.3146195 C154.780954,17.5900619 157.633883,14.6316991 161.384963,14.6316991 C165.162565,14.6316991 167.59245,17.5900619 167.59245,21.1296195 C167.59245,22.2658142 167.434299,22.8470088 166.588865,22.8470088" id="Fill-15" fill="#164193"></path>
                    <path d="M180.720312,27.8392257 L176.678798,27.8392257 C176.467604,27.8392257 176.36217,27.7599867 176.203365,27.5749867 L174.169347,24.458146 L172.135329,27.5749867 C172.003373,27.7599867 171.871418,27.8392257 171.659896,27.8392257 L167.618382,27.8392257 C167.301427,27.8392257 167.169471,27.6277035 167.354143,27.363792 L171.633701,21.1825 L167.59186,15.371208 C167.380665,15.1072965 167.539143,14.8957743 167.856099,14.8957743 L171.897612,14.8957743 C172.109135,14.8957743 172.24109,14.9750133 172.373046,15.1600133 L174.169347,17.9333761 L175.99217,15.1600133 C176.124453,14.9750133 176.256409,14.8957743 176.467604,14.8957743 L180.509117,14.8957743 C180.826073,14.8957743 180.958356,15.1072965 180.773028,15.371208 L176.731842,21.1825 L180.98455,27.363792 C181.16955,27.6277035 181.037595,27.8392257 180.720312,27.8392257" id="Fill-17" fill="#164193"></path>
                    <path d="M191.074614,15.2920018 L191.074614,18.0129752 C191.074614,18.250692 190.916136,18.4088425 190.678419,18.4088425 L188.565163,18.4088425 L188.565163,27.4430637 C188.565163,27.6807805 188.406685,27.8392584 188.168968,27.8392584 L184.602888,27.8392584 C184.365172,27.8392584 184.206694,27.6807805 184.206694,27.4430637 L184.206694,18.4088425 L182.093437,18.4088425 C181.85572,18.4088425 181.697242,18.250692 181.697242,18.0129752 L181.697242,15.2920018 C181.697242,15.054285 181.85572,14.8958071 182.093437,14.8958071 L184.206694,14.8958071 L184.206694,11.3297274 C184.206694,11.0920106 184.365172,10.9335327 184.602888,10.9335327 L188.168968,10.9335327 C188.406685,10.9335327 188.565163,11.0920106 188.565163,11.3297274 L188.565163,14.8958071 L190.678419,14.8958071 C190.916136,14.8958071 191.074614,15.054285 191.074614,15.2920018" id="Fill-19" fill="#164193"></path>
                    <path d="M210.727312,17.458008 L210.727312,19.4127867 C210.727312,24.2204947 207.530904,28.182769 202.274285,28.182769 C196.859188,28.182769 192.527241,23.9297336 192.527241,18.5938752 C192.527241,13.3107336 196.832993,9.1372646 202.142329,9.1372646 C204.757542,9.1372646 207.108515,10.1411761 208.719816,11.8844327 C208.904816,12.0694327 208.851772,12.2541053 208.719816,12.4391053 L206.421559,14.9223619 C206.289604,15.1070345 206.051887,15.1070345 205.866887,14.9485566 C204.889497,14.1034504 203.648196,13.5484504 202.089612,13.5484504 C199.315922,13.5484504 197.176471,15.7412735 197.176471,18.5938752 C197.176471,21.4995212 199.130922,23.7450611 202.247763,23.7450611 C204.889497,23.7450611 206.263081,22.3187602 206.368842,20.7601761 L202.300807,20.7601761 C202.06309,20.7601761 201.904612,20.6013708 201.904612,20.363654 L201.904612,17.458008 C201.904612,17.2202912 202.06309,17.0618133 202.300807,17.0618133 L210.331117,17.0618133 C210.568834,17.0618133 210.727312,17.2202912 210.727312,17.458008" id="Fill-21" fill="#164193"></path>
                    <path d="M3.17738319,4.23633628 C3.17738319,2.67906195 4.44455133,1.41189381 6.00182566,1.41189381 L42.7179407,1.41189381 C44.275215,1.41189381 45.5423832,2.67906195 45.5423832,4.23633628 L45.5423832,29.6553363 C45.5423832,31.2126106 44.275215,32.4797788 42.7179407,32.4797788 L6.00182566,32.4797788 C4.44455133,32.4797788 3.17738319,31.2126106 3.17738319,29.6553363 L3.17738319,4.23633628 Z M6.00182566,33.8916726 L42.7179407,33.8916726 C45.0541796,33.8916726 46.9546044,31.9912478 46.9546044,29.6553363 L46.9546044,4.23633628 C46.9546044,1.90042478 45.0541796,0 42.7179407,0 L6.00182566,0 C3.66558673,0 1.76516195,1.90042478 1.76516195,4.23633628 L1.76516195,29.6553363 C1.76516195,31.9912478 3.66558673,33.8916726 6.00182566,33.8916726 L6.00182566,33.8916726 Z" id="Fill-23" fill="#00A8E4"></path>
                    <g id="Group-27" transform="translate(0.000000, 35.712367)">
                        <mask id="mask-2" fill="white">
                            <use xlink:href="#path-1"></use>
                        </mask>
                        <g id="Clip-26"></g>
                        <path d="M47.9152947,-2.32655586e-15 L0.804471681,-2.32655586e-15 C0.360144248,-2.32655586e-15 -3.27433628e-05,0.316300885 -3.27433628e-05,0.705946903 C-3.27433628e-05,1.09592035 0.360144248,1.41222124 0.804471681,1.41222124 L47.9152947,1.41222124 C48.3596221,1.41222124 48.7197991,1.09592035 48.7197991,0.705946903 C48.7197991,0.316300885 48.3596221,-2.32655586e-15 47.9152947,-2.32655586e-15" id="Fill-25" fill="#00A8E4" mask="url(#mask-2)"></path>
                    </g>
                    <path d="M24.6608929,25.4866478 L24.4886628,25.6159841 L24.317415,25.4866478 C24.0390965,25.2780726 23.7342558,25.0485416 23.419592,24.8091876 C23.1979195,25.3062319 22.8272646,25.7093027 22.3734416,25.9807451 C22.726415,26.2498956 23.0676009,26.5072584 23.3783354,26.7400637 L24.0158487,27.2190991 C24.1553354,27.3248602 24.3219991,27.3779044 24.4886628,27.3779044 C24.6553265,27.3779044 24.8219903,27.3248602 24.961477,27.2190991 L25.5999726,26.7390814 C28.9692646,24.212931 35.2412558,19.5122938 35.2412558,13.8791257 C35.2412558,9.36479823 32.0608929,7.00367434 28.9194947,7.00367434 C27.1559372,7.00367434 25.5705035,7.7374531 24.4886628,9.01215221 C23.4071496,7.7374531 21.8207336,7.00367434 20.0575035,7.00367434 C16.9157779,7.00367434 13.735415,9.36479823 13.735415,13.8791257 C13.735415,14.3489929 13.7933708,14.809692 13.8752292,15.2658071 L13.9240168,15.2658071 L14.2779726,14.965223 C14.5893619,14.7006566 14.9551053,14.5231876 15.3411496,14.4279044 C15.3247779,14.2451965 15.3008752,14.0631434 15.3008752,13.8791257 C15.3008752,10.3929398 17.6934327,8.56880708 20.0575035,8.56880708 C21.6599637,8.56880708 23.0590876,9.39033805 23.799415,10.7671965 C24.0724947,11.2743912 24.904831,11.2743912 25.1779106,10.7671965 C25.9182381,9.39033805 27.3170345,8.56880708 28.9194947,8.56880708 C31.2835655,8.56880708 33.676123,10.3929398 33.676123,13.8791257 C33.676123,18.7294 27.8117867,23.1245416 24.6608929,25.4866478" id="Fill-28" fill="#FCC400"></path>
                    <path d="M27.245654,18.3709257 C26.9719195,18.3709257 26.7492646,18.1485982 26.7492646,17.8745363 C26.7492646,17.6004743 26.9719195,17.3784743 27.245654,17.3784743 C27.5193885,17.3784743 27.7420434,17.6004743 27.7420434,17.8745363 C27.7420434,18.1485982 27.5193885,18.3709257 27.245654,18.3709257 M27.245654,16.3349434 C26.6782115,16.3349434 26.1870611,16.6469876 25.9198752,17.1050673 C25.8976097,17.1031027 25.8779637,17.0919699 25.8550434,17.0919699 L24.4408575,17.0919699 L23.7398221,15.3873504 C23.6101584,15.0733416 23.2909106,14.8880142 22.9569283,14.9040584 C22.6193442,14.9295982 22.3364416,15.1692796 22.2555655,15.4983504 L21.2480522,19.605023 L20.2664062,12.5920496 C20.2143442,12.2191027 19.9036097,11.9368549 19.5277159,11.9195009 C19.1593531,11.8939611 18.8162027,12.1549257 18.7297602,12.5216513 L17.3443885,18.4046513 L16.7009814,16.6794035 C16.611592,16.4397221 16.4118575,16.2593062 16.1649726,16.1951292 C15.9187425,16.1299699 15.6551584,16.1902177 15.4606628,16.3562265 L14.5949283,17.0919699 L10.9938133,17.0919699 C10.5619283,17.0919699 10.2112469,17.4426513 10.2112469,17.8745363 C10.2112469,18.3067487 10.5619283,18.6571027 10.9938133,18.6571027 L14.8827425,18.6571027 C15.0687248,18.6571027 15.2481584,18.5909611 15.3899372,18.4707929 L15.6243796,18.2720407 L16.7808752,21.3728372 C16.9016982,21.6960142 17.2219283,21.9131027 17.5631142,21.8803593 C17.9072469,21.8590761 18.1966982,21.6144832 18.2756097,21.2791912 L19.2958929,16.9472442 L20.2634593,23.8560938 C20.3151938,24.2270761 20.6239637,24.5093239 20.9985478,24.5286425 C21.0116451,24.5299522 21.0253973,24.5299522 21.0388221,24.5299522 C21.3970345,24.5299522 21.7123531,24.2853593 21.7984681,23.9336956 L23.2047956,18.1996779 C23.3315124,18.4779965 23.6091761,18.6571027 23.9163088,18.6571027 L25.8550434,18.6571027 C25.8779637,18.6571027 25.8976097,18.6459699 25.9198752,18.6443327 C26.1870611,19.1024124 26.6782115,19.4144566 27.245654,19.4144566 C28.0943619,19.4144566 28.7852469,18.7235717 28.7852469,17.8745363 C28.7852469,17.0258283 28.0943619,16.3349434 27.245654,16.3349434" id="Fill-30" fill="#FCC400"></path>
                </g>
            </g>
        </g>
    </g>
</svg>